<svg height="1080" viewBox="-10.62 83.73 1080 1080" width="1080" xmlns="http://www.w3.org/2000/svg"><path d="m0 0h1080v1080h-1080z" fill="#fff" visibility="hidden"/><path d="m-33.085-33.085h66.17v66.17h-66.17z" fill="#dd940c" transform="matrix(5.38 0 0 3.63 580.39 617.56)"/><path d="m-37.43 32.41 37.43-64.82 37.43 64.82z" fill="#dd940c" transform="matrix(1.39 .82 -.83 1.4 368.08 657.4)"/><path d="m-37.43 32.41 37.43-64.82 37.43 64.82z" fill="#dd940c" transform="matrix(0 1.56 -1.63 0 342.66 615.34)"/><path d="m-37.43 32.41 37.43-64.82 37.43 64.82z" fill="#dd940c" transform="matrix(-1.4 .82 -.82 -1.4 368.69 573.84)"/><path d="m-37.43 32.41 37.43-64.82 37.43 64.82z" fill="#dd940c" transform="matrix(1.4 -.81 .81 1.39 316.55 484.28)"/><path d="m-37.43 32.41 37.43-64.82 37.43 64.82z" fill="#dd940c" transform="translate(540 540)"/><path d="m-37.43 32.41 37.43-64.82 37.43 64.82z" fill="#dd940c" transform="translate(540 540)"/><path d="m-37.43 32.41 37.43-64.82 37.43 64.82z" fill="#dd940c" transform="matrix(0 -1.54 1.53 0 345.3 430.93)"/><path d="m506.915 506.915h66.17v66.17h-66.17z" fill="#dd940c"/><path d="m506.915 506.915h66.17v66.17h-66.17z" fill="#dd940c"/><path d="m-33.085-33.085h66.17v66.17h-66.17z" fill="#dd940c" transform="matrix(4.19 0 0 1.72 532.06 430.79)"/><path d="m-37.43 32.41 37.43-64.82 37.43 64.82z" fill="#dd940c" transform="translate(540 540)"/><path d="m-37.43 32.41 37.43-64.82 37.43 64.82z" fill="#dd940c" transform="translate(540 540)"/><path d="m-37.43 32.41 37.43-64.82 37.43 64.82z" fill="#dd940c" transform="matrix(2.43 0 0 1.75 670.44 431.28)"/><path d="m506.915 506.915h66.17v66.17h-66.17z" fill="#dd940c"/><path d="m506.915 506.915h66.17v66.17h-66.17z" fill="#dd940c"/><path d="m430.95325 521.74325h36.3935v36.3935h-36.3935z" fill="#fff"/><path d="m473.80325 521.80325h36.3935v36.3935h-36.3935z" fill="#fff"/><path d="m474.10325 563.90325h36.3935v36.3935h-36.3935z" fill="#fff"/><path d="m431.09325 564.19325h36.3935v36.3935h-36.3935z" fill="#fff"/><path d="m699.02325 564.32325h36.3935v36.3935h-36.3935z" fill="#fff"/><path d="m656.86325 564.47325h36.3935v36.3935h-36.3935z" fill="#fff"/><path d="m656.48325 522.80325h36.3935v36.3935h-36.3935z" fill="#fff"/><path d="m698.86325 522.80325h36.3935v36.3935h-36.3935z" fill="#fff"/><path d="m-33.085-33.085h66.17v66.17h-66.17z" fill="#fff" transform="matrix(1 0 0 1.53 583.12 680.5)"/><g fill="#dd940c"><path d="m-33.085-33.085h66.17v66.17h-66.17z" transform="matrix(2.96 0 0 1 193.89 562.64)"/><path d="m-33.085-33.085h66.17v66.17h-66.17z" transform="matrix(2.96 0 0 1 853.83 563.83)"/><path d="m-33.085-33.085h66.17v66.17h-66.17z" transform="matrix(.77 0 0 3.77 244.29 561.33)"/><path d="m-33.085-33.085h66.17v66.17h-66.17z" transform="matrix(.71 0 0 2.82 190.81 559.86)"/><path d="m-33.085-33.085h66.17v66.17h-66.17z" transform="matrix(.58 0 0 2.23 143.9 560.62)"/><path d="m-33.085-33.085h66.17v66.17h-66.17z" transform="matrix(.77 0 0 3.77 808.57 568.25)"/><path d="m-33.085-33.085h66.17v66.17h-66.17z" transform="matrix(.71 0 0 2.82 861.52 566.43)"/><path d="m-33.085-33.085h66.17v66.17h-66.17z" transform="matrix(.58 0 0 2.23 908.39 565.46)"/><circle r="35" transform="matrix(.72 0 0 .31 245.31 436.74)"/><circle r="35" transform="matrix(.72 0 0 .31 244.6 683.46)"/><circle r="35" transform="matrix(.72 0 0 .31 808.68 692.75)"/><circle r="35" transform="matrix(.72 0 0 .31 808.37 442.64)"/><circle r="35" transform="matrix(.67 0 0 .23 861.56 473.79)"/><circle r="35" transform="matrix(.67 0 0 .23 861.25 659.11)"/><circle r="35" transform="matrix(.67 0 0 .23 190.69 652.22)"/><circle r="35" transform="matrix(.67 0 0 .23 190.52 467.13)"/><circle r="35" transform="matrix(.55 0 0 .18 143.91 487.64)"/><circle r="35" transform="matrix(.55 0 0 .18 143.81 632.87)"/><circle r="35" transform="matrix(.55 0 0 .18 908.38 638.94)"/><circle r="35" transform="matrix(.54 0 0 .18 908.41 492.11)"/><circle cx="603.2" cy="693.6" r="5.25"/></g></svg>